<svg width="729" height="695" viewBox="0 0 729 695" fill="none" xmlns="http://www.w3.org/2000/svg">
<rect width="729" height="705" fill="#5F348D"/>
<path d="M597 704H89V207.553C89 101.93 179.218 16 290.112 16H395.888C506.782 16 597 101.93 597 207.553V704Z" fill="#858EAD"/>
<path d="M490.997 704H89.0007V207.551C88.8898 167.079 102.338 127.629 127.386 94.9465C128.309 93.7472 129.231 92.5634 130.18 91.3927C142.296 76.2487 156.714 62.9115 172.959 51.8215C173.877 51.185 174.798 50.5597 175.733 49.9344C189.326 40.9696 204.03 33.6411 219.511 28.1157C220.43 27.7839 221.366 27.4513 222.302 27.1317C236.302 22.3694 250.816 19.107 265.574 17.4048C266.485 17.2858 267.428 17.1929 268.367 17.0991C282.748 15.6336 297.253 15.6336 311.634 17.0991C312.571 17.192 313.51 17.2858 314.435 17.4056C329.189 19.1084 343.699 22.3707 357.695 27.1326C358.631 27.4513 359.568 27.7839 360.489 28.1174C375.78 33.5728 390.312 40.7917 403.761 49.613C404.695 50.221 405.63 50.8497 406.552 51.475C415.657 57.6695 424.21 64.5704 432.122 72.1074C438.468 78.1527 444.382 84.5968 449.823 91.3962C450.769 92.5634 451.69 93.7472 452.612 94.9448C477.661 127.628 491.11 167.078 490.999 207.551L490.997 704Z" fill="#CCCCCC"/>
<path d="M458.641 351.386C470.931 351.386 480.895 341.667 480.895 329.679C480.895 317.69 470.931 307.972 458.641 307.972C446.35 307.972 436.386 317.69 436.386 329.679C436.386 341.667 446.35 351.386 458.641 351.386Z" fill="#6C63FF"/>
<path d="M380.75 556.925H199.933C197.552 556.937 195.263 556.028 193.568 554.396C191.873 552.765 190.911 550.544 190.892 548.221V154.549C190.911 152.226 191.873 150.005 193.568 148.374C195.262 146.742 197.551 145.833 199.932 145.845H380.75C383.131 145.833 385.42 146.742 387.115 148.374C388.81 150.005 389.772 152.226 389.79 154.549V548.221C389.772 550.544 388.81 552.765 387.115 554.396C385.42 556.028 383.131 556.937 380.75 556.925Z" fill="#858EAD"/>
<path d="M389.791 273.225H190.892V275.939H389.791V273.225Z" fill="#CCCCCC"/>
<path d="M390.487 428.04H191.587V430.754H390.487V428.04Z" fill="#CCCCCC"/>
<path d="M256.265 145.846H253.483V558.283H256.265V145.846Z" fill="#CCCCCC"/>
<path d="M325.81 145.846H323.028V558.283H325.81V145.846Z" fill="#CCCCCC"/>
<path d="M593.946 258.738C593.945 260.323 593.755 261.902 593.38 263.443L577.353 329.969C576.812 332.217 575.822 334.339 574.44 336.213C573.057 338.088 571.309 339.678 569.296 340.892C567.282 342.107 565.043 342.923 562.706 343.292C560.37 343.662 557.981 343.579 555.677 343.047L491.446 323.606L488.31 322.662C486.273 324.026 483.978 324.981 481.559 325.471C479.14 325.961 476.645 325.976 474.22 325.515C464.897 323.906 458.443 316.506 459.804 308.975C461.166 301.444 469.828 296.654 479.15 298.254C481.59 298.629 483.93 299.474 486.033 300.74C488.136 302.005 489.959 303.666 491.398 305.625L491.445 305.634L491.608 305.663L547.514 312.408L552.214 257.1C552.647 251.852 555.145 246.97 559.185 243.478C563.225 239.986 568.494 238.154 573.887 238.366C579.281 238.577 584.381 240.816 588.121 244.613C591.86 248.411 593.949 253.472 593.948 258.737L593.946 258.738Z" fill="#ED9DA0"/>
<path d="M593.946 258.738C593.945 260.323 593.756 261.902 593.381 263.443L580.231 332.772C579.69 335.02 578.7 337.142 577.317 339.017C575.935 340.891 574.187 342.481 572.173 343.696C570.16 344.911 567.921 345.726 565.584 346.096C563.247 346.466 560.859 346.382 558.555 345.85L494.324 328.429L497.201 301.3L546.116 307.848L552.215 257.096C552.649 251.848 555.147 246.967 559.187 243.475C563.227 239.983 568.495 238.15 573.889 238.362C579.283 238.574 584.383 240.813 588.123 244.61C591.862 248.407 593.95 253.468 593.95 258.734L593.946 258.738Z" fill="#6C63FF"/>
<path d="M677.368 624.068L661.854 635.224L673.291 650.357L688.805 639.201L677.368 624.068Z" fill="#ED9DA0"/>
<path d="M696.559 654.871L663.581 678.586C660.742 680.621 657.473 682.012 654.013 682.656L645.779 684.177C644.872 684.345 643.934 684.239 643.09 683.873C642.247 683.506 641.538 682.898 641.058 682.129C640.579 681.359 640.351 680.465 640.406 679.566C640.461 678.667 640.796 677.806 641.366 677.098L651.351 664.693L664.494 638.262L664.569 638.33C666.469 640.024 669.354 642.571 669.57 642.696C673.629 643.572 676.746 643.08 678.835 641.233C682.48 638.012 681.744 631.693 681.736 631.633L681.73 631.585L681.772 631.56C682.185 631.288 682.655 631.113 683.148 631.047C683.641 630.981 684.143 631.027 684.615 631.18C686.512 631.856 687.501 634.284 687.644 634.656C689.495 634.91 694.312 640.296 694.699 640.732C697.47 641.222 699.378 642.237 700.37 643.748C700.811 644.501 701.083 645.337 701.169 646.2C701.255 647.064 701.153 647.935 700.869 648.757C700.19 651.215 698.669 653.372 696.559 654.871Z" fill="#2F2E43"/>
<path d="M544.324 668.225H525.05V687.025H544.324V668.225Z" fill="#ED9DA0"/>
<path d="M541.035 704.127H500.063C496.54 704.122 493.063 703.35 489.886 701.865L482.333 698.324C481.501 697.934 480.811 697.305 480.355 696.523C479.898 695.74 479.698 694.84 479.78 693.943C479.862 693.046 480.223 692.195 480.814 691.503C481.405 690.812 482.199 690.312 483.088 690.072L498.67 685.866L525.329 672.199L525.349 672.297C525.847 674.76 526.62 678.481 526.715 678.707C529.449 681.762 532.258 683.17 535.062 682.891C539.955 682.408 543.207 676.897 543.24 676.841L543.264 676.798L543.315 676.804C543.812 676.824 544.297 676.955 544.734 677.187C545.171 677.419 545.547 677.747 545.833 678.143C546.949 679.785 546.269 682.313 546.157 682.694C547.493 683.969 548.093 691.093 548.14 691.671C550.072 693.669 550.991 695.59 550.873 697.381C550.77 698.242 550.481 699.072 550.026 699.817C549.57 700.562 548.959 701.204 548.231 701.702C546.188 703.288 543.65 704.145 541.038 704.131L541.035 704.127Z" fill="#2F2E43"/>
<path d="M622.969 374.333H530.593L515.867 673.254H548.398L569.417 537.38L653.76 646.079L684.553 618.904L622.968 537.379L622.969 374.333Z" fill="#2F2E43"/>
<path d="M601.736 189.359C601.734 183.221 599.989 177.204 596.693 171.975C593.398 166.746 588.681 162.511 583.067 159.738C577.453 156.966 571.161 155.766 564.89 156.271C558.618 156.776 552.613 158.967 547.541 162.6C542.469 166.232 538.529 171.165 536.157 176.85C533.785 182.535 533.075 188.75 534.106 194.805C535.137 200.86 537.868 206.518 541.996 211.151C546.124 215.783 551.487 219.209 557.491 221.048L564.072 263.475L597.624 236.203C597.624 236.203 590.376 227.198 586.489 217.043C591.178 214.018 595.026 209.905 597.687 205.074C600.347 200.242 601.739 194.843 601.736 189.359Z" fill="#ED9DA0"/>
<path d="M602.684 333.356L617.772 376.722L532.412 375.786L545.139 336.162L602.684 333.356Z" fill="#ED9DA0"/>
<path d="M594.976 223.288L557.123 236.124L521.336 416.329L594.977 425.099H630.971L603.47 245.898C602.239 237.877 599.349 230.185 594.974 223.288H594.976Z" fill="#6C63FF"/>
<path d="M584.363 435.026L585.022 405.406L567.291 405.031L566.632 434.651C564.865 436.335 563.458 438.345 562.495 440.564C561.533 442.784 561.032 445.168 561.024 447.578C560.818 456.811 567.002 464.43 574.836 464.596C582.67 464.762 589.187 457.412 589.392 448.178C589.491 445.77 589.097 443.366 588.234 441.108C587.37 438.849 586.055 436.781 584.363 435.024V435.026Z" fill="#ED9DA0"/>
<path d="M594.277 209.746C596.048 210.04 598.125 205.855 600.109 201.779C604.266 193.246 606.909 187.825 607.109 180.156C607.281 173.621 605.42 175.337 603.609 160.809C603.012 156.017 594.62 156.026 592.911 153.75C590.026 149.907 594.453 148.322 587.274 146.018C573.828 141.693 567.748 148.411 559.208 148.99C558.992 149.004 554.76 153.043 552.395 153.252C548.252 153.618 542.28 152.985 539.598 146.833C537.093 141.077 535.434 157.897 537.673 159.978C539.633 161.987 541.396 164.172 542.936 166.503C543.027 166.869 538.99 154.998 537.673 158.513C536.725 161.042 535.859 177.395 538.269 177.884C540.285 178.293 557.035 184.568 575.606 172.195C576.265 171.756 575.642 172.457 577.94 177.884C580.836 184.728 581.493 185.102 581.44 186.988C581.33 191.071 578.188 192.273 579.106 194.955C579.566 196.064 580.384 196.998 581.436 197.614C582.488 198.23 583.718 198.495 584.938 198.369C587.398 197.873 587.822 194.902 589.605 194.955C591.133 195 592.944 197.243 593.105 199.507C593.445 204.277 586.206 205.589 584.938 212.026C584.222 215.66 592.645 209.48 594.272 209.75L594.277 209.746Z" fill="#090814"/>
</svg>
